<?xml version="1.0" encoding="iso-8859-1"?>
<!-- Generator: Adobe Illustrator 19.1.0, SVG Export Plug-In . SVG Version: 6.00 Build 0)  -->
<svg version="1.1" id="Capa_1" xmlns="http://www.w3.org/2000/svg" xmlns:xlink="http://www.w3.org/1999/xlink" x="0px" y="0px"
	 viewBox="0 0 399.908 399.908" style="enable-background:new 0 0 399.908 399.908;" xml:space="preserve">
<g>
	<g>
		<path style="fill:#545465;" d="M320.904,245.004l-57.613-17.223c-2.829-6.806-3.785-14.829-4.072-21.41
			c-0.144-3.299,1.087-6.435,3.195-8.977c2.404-2.899,4.648-5.961,6.758-9.135H130.738c2.099,3.157,4.328,6.205,6.717,9.09
			c2.119,2.558,3.351,5.717,3.19,9.035c-0.319,6.577-1.317,14.593-4.173,21.393l-57.469,17.227
			c-27.576,8.823-50.138,39.733-50.138,68.687v66.476c0,10.903,8.838,19.741,19.741,19.741h302.695
			c10.903,0,19.741-8.838,19.741-19.741v-66.476C371.042,284.737,348.48,253.827,320.904,245.004z"/>
	</g>
	<g>
		<path style="fill:#29394A;" d="M127.555,230.45c12.209,25.513,39.97,43.353,72.309,43.353c32.345,0,60.109-17.846,72.315-43.365
			l-2.182-0.652c-4.636-1.386-8.107-5.211-9.141-9.938c-1.013-4.629-1.458-9.351-1.638-13.498c-0.143-3.297,1.105-6.433,3.211-8.974
			c2.398-2.893,4.637-5.949,6.743-9.117H130.738c2.094,3.149,4.316,6.19,6.699,9.068c2.118,2.559,3.37,5.719,3.209,9.036
			c-0.201,4.158-0.673,8.893-1.714,13.532c-1.054,4.697-4.508,8.496-9.119,9.878L127.555,230.45z"/>
	</g>
	<g>
		<path style="fill:#D0D7DC;" d="M199.954,0c-52.157,0-94.439,39.649-94.439,88.56v34.365c0,48.91,42.282,108.106,94.439,108.106
			s94.439-59.196,94.439-108.106V88.56C294.393,39.649,252.111,0,199.954,0z"/>
	</g>
	<g>
		<path style="fill:#E4EBF0;" d="M107.189,140.003c1.186,6.46,2.984,12.947,5.372,19.338c20.559,14.86,66.863,25.628,87.393,25.628
			h0.001c20.53,0,66.834-10.768,87.393-25.628c2.388-6.391,4.186-12.878,5.372-19.338h-92.765h-0.001H107.189z"/>
	</g>
	<g>
		<path style="fill:#545465;" d="M105.515,88.56v34.366c0,11.367,2.366,23.276,6.527,34.882
			c57.387,20.896,118.471,20.877,175.848-0.068c4.145-11.584,6.504-23.469,6.504-34.813V88.56c0-1.329-0.15-2.622-0.212-3.937
			c-62.818,0-125.636,0-188.454,0C105.665,85.937,105.515,87.231,105.515,88.56z"/>
	</g>
	<g>
		<path style="fill:#6E6E79;" d="M199.864,84.622v88.838c29.652,0.002,59.303-5.237,88.026-15.722
			c4.145-11.584,6.504-23.469,6.504-34.813V88.56c0-1.329-0.15-2.622-0.212-3.937C262.742,84.622,231.302,84.622,199.864,84.622z"/>
	</g>
	<g>
		<g>
			<path style="fill:#29394A;" d="M59.531,255.391c-17.977,13.773-30.666,36.586-30.666,58.3v66.476
				c0,10.903,8.838,19.741,19.741,19.741h39.392V307.79c0-5.006-1.427-9.908-4.115-14.131L59.531,255.391z"/>
		</g>
	</g>
	<g>
		<g>
			<path style="fill:#29394A;" d="M340.287,255.391c17.977,13.773,30.666,36.586,30.666,58.3v66.476
				c0,10.903-8.838,19.741-19.741,19.741h-39.392V307.79c0-5.006,1.427-9.908,4.115-14.131L340.287,255.391z"/>
		</g>
	</g>
</g>
<g>
</g>
<g>
</g>
<g>
</g>
<g>
</g>
<g>
</g>
<g>
</g>
<g>
</g>
<g>
</g>
<g>
</g>
<g>
</g>
<g>
</g>
<g>
</g>
<g>
</g>
<g>
</g>
<g>
</g>
</svg>
