<?xml version="1.0" encoding="iso-8859-1"?>
<!-- Generator: Adobe Illustrator 19.0.0, SVG Export Plug-In . SVG Version: 6.00 Build 0)  -->
<svg version="1.1" id="Capa_1" xmlns="http://www.w3.org/2000/svg" xmlns:xlink="http://www.w3.org/1999/xlink" x="0px" y="0px"
	 viewBox="0 0 512 512" style="enable-background:new 0 0 512 512;" xml:space="preserve">
<path style="fill:#E1FFFA;" d="M104.008,50C146.516,18.584,199.085,0,256,0s109.484,18.584,151.992,50H104.008z M51.495,410
	C98.219,471.948,172.429,512,256,512s157.781-40.052,204.505-102H51.495z"/>
<path style="fill:#B9DCFF;" d="M460,101.342V110c0,5.523-4.477,10-10,10H180H39.094H10c-5.523,0-10-4.477-10-10V50
	c0-5.523,4.477-10,10-10h108.548H180h213.452C419.11,56.362,441.649,77.174,460,101.342z"/>
<path style="fill:#5F3273;" d="M451.859,420.834c-8.819,10.473-18.46,20.23-28.83,29.166H88.971
	c-10.171-8.765-19.641-18.32-28.322-28.564C56.828,416.925,60.064,410,65.975,410h380.837
	C452.412,410,455.466,416.55,451.859,420.834z"/>
<path style="fill:#FF6E91;" d="M512,256c0,62.873-22.679,120.44-60.285,165H60.285C22.679,376.44,0,318.873,0,256V90h61.13H282h10
	h158.87C488.982,134.697,512,192.656,512,256z"/>
<path style="fill:#91B9FF;" d="M40,65.003c0,5.523-4.477,10-10,10s-10-4.477-10-10s4.477-10,10-10S40,59.48,40,65.003z M60,55.003
	c-5.523,0-10,4.477-10,10s4.477,10,10,10s10-4.477,10-10S65.523,55.003,60,55.003z M90,55.003c-5.523,0-10,4.477-10,10
	s4.477,10,10,10s10-4.477,10-10S95.523,55.003,90,55.003z"/>
<path style="fill:#DC325F;" d="M61,380L61,380c0-5.523,4.477-10,10-10h370c5.523,0,10,4.477,10,10l0,0c0,5.523-4.477,10-10,10H71
	C65.477,390,61,385.523,61,380z"/>
<path style="fill:#AA1E41;" d="M132,380c0,11.046-8.954,20-20,20s-20-8.954-20-20s8.954-20,20-20S132,368.954,132,380z"/>
<path style="fill:#FF82A0;" d="M256,330L256,330c-55.229,0-100-44.771-100-100l0,0c0-55.228,44.771-100,100-100l0,0
	c55.228,0,100,44.771,100,100l0,0C356,285.229,311.228,330,256,330z"/>
<path style="fill:#FFEBDC;" d="M208.218,281.886V178.114c0-3.766,4.007-6.181,7.337-4.42l98.159,51.886
	c3.551,1.877,3.551,6.964,0,8.841l-98.159,51.886C212.225,288.067,208.218,285.653,208.218,281.886z"/>
<g>
</g>
<g>
</g>
<g>
</g>
<g>
</g>
<g>
</g>
<g>
</g>
<g>
</g>
<g>
</g>
<g>
</g>
<g>
</g>
<g>
</g>
<g>
</g>
<g>
</g>
<g>
</g>
<g>
</g>
</svg>
