<?xml version="1.0" encoding="iso-8859-1"?>
<!-- Generator: Adobe Illustrator 19.0.0, SVG Export Plug-In . SVG Version: 6.00 Build 0)  -->
<svg version="1.1" id="Capa_1" xmlns="http://www.w3.org/2000/svg" xmlns:xlink="http://www.w3.org/1999/xlink" x="0px" y="0px"
	 viewBox="0 0 512 512" style="enable-background:new 0 0 512 512;" xml:space="preserve">
<path style="fill:#FFF573;" d="M512,256c0,141.385-114.615,256-256,256S0,397.385,0,256S114.615,0,256,0S512,114.615,512,256z"/>
<path style="fill:#5F82C3;" d="M406,20v443.453C363.846,493.986,312.03,512,256,512s-107.846-18.014-150-48.547V20
	c0-11.046,8.954-20,20-20h260C397.046,0,406,8.954,406,20z"/>
<path style="fill:#415A87;" d="M170,0c-11.046,0-20,8.954-20,20v469.084c-15.566-7.091-30.291-15.701-44-25.631V20
	c0-11.046,8.954-20,20-20H170z"/>
<path style="fill:#C8FFFA;" d="M372,460H140c-5.523,0-10-4.477-10-10V70c0-5.523,4.477-10,10-10h232c5.523,0,10,4.477,10,10v380
	C382,455.523,377.523,460,372,460z"/>
<path style="fill:#E1FFFA;" d="M372,460H170c-5.523,0-10-4.477-10-10V70c0-5.523,4.477-10,10-10h202c5.523,0,10,4.477,10,10v380
	C382,455.523,377.523,460,372,460z"/>
<path style="fill:#415A87;" d="M276,40h-40c-5.523,0-10-4.477-10-10l0,0c0-5.523,4.477-10,10-10h40c5.523,0,10,4.477,10,10l0,0
	C286,35.523,281.523,40,276,40z"/>
<path style="fill:#8CEBEB;" d="M346,410H166c-5.523,0-10-4.477-10-10v-90c0-5.523,4.477-10,10-10h180c5.523,0,10,4.477,10,10v90
	C356,405.523,351.523,410,346,410z"/>
<path style="fill:#9BF5F0;" d="M156,235v-10c0-2.761,2.239-5,5-5h80c2.761,0,5,2.239,5,5v10c0,2.761-2.239,5-5,5h-80
	C158.239,240,156,237.761,156,235z M285,260H161c-2.761,0-5,2.239-5,5v10c0,2.761,2.239,5,5,5h124c2.761,0,5-2.239,5-5v-10
	C290,262.239,287.761,260,285,260z M315,220h-50c-2.761,0-5,2.239-5,5v10c0,2.761,2.239,5,5,5h50c2.761,0,5-2.239,5-5v-10
	C320,222.239,317.761,220,315,220z"/>
<path style="fill:#64D2CD;" d="M246.015,300h47.97C315.18,309.257,330,330.393,330,355s-14.82,45.743-36.015,55h-47.97
	C224.82,400.743,210,379.607,210,355S224.82,309.257,246.015,300z"/>
<path style="fill:#E1FFFA;" d="M260,330v10c0,2.761-2.239,5-5,5h-80c-2.761,0-5-2.239-5-5v-10c0-2.761,2.239-5,5-5h80
	C257.761,325,260,327.239,260,330z M225,365h-50c-2.761,0-5,2.239-5,5v10c0,2.761,2.239,5,5,5h50c2.761,0,5-2.239,5-5v-10
	C230,367.239,227.761,365,225,365z"/>
<path style="fill:#FF6E91;" d="M346,200H166c-5.523,0-10-4.477-10-10v-90c0-5.523,4.477-10,10-10h180c5.523,0,10,4.477,10,10v90
	C356,195.523,351.523,200,346,200z"/>
<path style="fill:#FFEBDC;" d="M229.569,168.34v-46.68c0-3.279,3.488-5.381,6.387-3.848l44.156,23.34
	c3.092,1.634,3.092,6.063,0,7.697l-44.156,23.34C233.058,173.721,229.569,171.62,229.569,168.34z"/>
<path style="fill:#5F3273;" d="M480.595,235.197l-25.179,25.179c-3.477,3.477-9.113,3.477-12.59,0l0,0
	c-3.477-3.477-3.477-9.113,0-12.59l25.179-25.179c3.477-3.477,9.113-3.477,12.59,0l0,0
	C484.072,226.084,484.072,231.721,480.595,235.197z"/>
<path style="fill:#9B23AA;" d="M468.422,251.452l-16.154,56.136l-38.042,7.997l-26.609-26.609l7.997-38.042l56.136-16.154
	c1.556-0.448,3.233-0.015,4.378,1.13l11.163,11.163C468.437,248.219,468.87,249.895,468.422,251.452z"/>
<path style="fill:#D255CD;" d="M395.615,250.934l56.654,56.654L247.993,511.863c-32.875-1.01-64.188-8.217-92.813-20.494
	L395.615,250.934z"/>
<path style="fill:#C341C3;" d="M155.18,491.369l240.435-240.435l20.616,20.616L185.59,502.191
	C175.165,499.215,165.016,495.588,155.18,491.369z"/>
<path style="fill:#AF32C3;" d="M272.147,452.563l-34.982,34.982c-5.939,5.939-15.568,5.939-21.507,0l0,0
	c-5.939-5.939-5.939-15.568,0-21.507l34.982-34.982c5.939-5.939,15.568-5.939,21.507,0l0,0
	C278.086,436.995,278.086,446.624,272.147,452.563z"/>
<path style="fill:#EBF582;" d="M263.762,446.312c-1.898,1.898-4.974,1.898-6.872,0c-1.898-1.897-1.898-4.974,0-6.872
	c1.898-1.898,4.974-1.898,6.872,0S265.66,444.415,263.762,446.312z"/>
<g>
</g>
<g>
</g>
<g>
</g>
<g>
</g>
<g>
</g>
<g>
</g>
<g>
</g>
<g>
</g>
<g>
</g>
<g>
</g>
<g>
</g>
<g>
</g>
<g>
</g>
<g>
</g>
<g>
</g>
</svg>
