<?xml version="1.0" encoding="iso-8859-1"?>
<!-- Generator: Adobe Illustrator 19.0.0, SVG Export Plug-In . SVG Version: 6.00 Build 0)  -->
<svg version="1.1" id="Capa_1" xmlns="http://www.w3.org/2000/svg" xmlns:xlink="http://www.w3.org/1999/xlink" x="0px" y="0px"
	 viewBox="0 0 512 512" style="enable-background:new 0 0 512 512;" xml:space="preserve">
<path style="fill:#82AAF0;" d="M512,256c0,115.952-77.096,213.88-182.818,245.367C326.747,493.066,319.088,487,310,487L50,369.5
	c-7.757,0-14.468,4.425-17.785,10.88C11.702,343.553,0,301.146,0,256C0,114.615,114.615,0,256,0S512,114.615,512,256z"/>
<path style="fill:#82E1E1;" d="M477.5,187.953c0,4.143-3.357,7.5-7.5,7.5H314.99l77.505,134.243
	c2.071,3.587,0.842,8.174-2.745,10.245c-1.181,0.682-2.471,1.006-3.743,1.006c-2.592,0-5.113-1.345-6.502-3.751L302,202.954
	l-77.505,134.243c-1.389,2.406-3.91,3.751-6.502,3.751c-1.272,0-2.562-0.324-3.743-1.006c-3.587-2.071-4.816-6.658-2.745-10.245
	l77.505-134.243H134c-4.143,0-7.5-3.357-7.5-7.5s3.357-7.5,7.5-7.5h155.009L211.505,46.211c-2.071-3.587-0.842-8.174,2.745-10.245
	c3.585-2.07,8.174-0.843,10.245,2.745L302,172.954l77.505-134.243c2.07-3.588,6.656-4.816,10.245-2.745
	c3.587,2.071,4.816,6.658,2.745,10.245l-77.504,134.242H470C474.143,180.453,477.5,183.811,477.5,187.953z"/>
<path style="fill:#8CEBEB;" d="M345,22.701c12.533-21.708,40.292-29.146,62-16.613s29.146,40.292,16.613,62
	s-40.292,29.146-62,16.613S332.467,44.409,345,22.701z M137.387,142.567c-25.067,0-45.387,20.32-45.387,45.387
	s20.32,45.387,45.387,45.387s45.387-20.321,45.387-45.387S162.454,142.567,137.387,142.567z M466.613,142.567
	c-25.067,0-45.387,20.321-45.387,45.387s20.32,45.387,45.387,45.387S512,213.02,512,187.954S491.68,142.567,466.613,142.567z
	 M197,6.088c-21.708,12.533-29.146,40.292-16.613,62c12.533,21.708,40.292,29.146,62,16.613s29.146-40.292,16.613-62
	C246.467,0.993,218.708-6.445,197,6.088z M361.613,291.206c-21.708,12.533-29.146,40.292-16.613,62s40.292,29.146,62,16.613
	s29.146-40.292,16.613-62S383.321,278.673,361.613,291.206z"/>
<path style="fill:#506EA0;" d="M330,200v301.123c-7.847,2.366-15.856,4.358-24,5.973V500c0-5.523-4.477-10-10-10L64,401.5
	c-5.523,0-10,4.477-10,10v1.746c-9.009-11.557-17.053-23.902-24-36.923V200c0-11.046,8.954-20,20-20h260
	C321.046,180,330,188.954,330,200z"/>
<path style="fill:#414669;" d="M150,210c0-5.523,4.477-10,10-10h40c5.523,0,10,4.477,10,10s-4.477,10-10,10h-40
	C154.477,220,150,215.523,150,210z M54,411.5c0-5.523,4.477-10,10-10l10,3.815V200c0-11.046,8.954-20,20-20H50
	c-11.046,0-20,8.954-20,20v176.323c6.947,13.021,14.992,25.364,24,36.92V411.5z"/>
<path style="fill:#C8FFFA;" d="M306,250v257.104c-16.172,3.202-32.887,4.896-50,4.896c-82.093,0-155.153-38.647-202-98.733V250
	c0-5.523,4.477-10,10-10h232C301.523,240,306,244.477,306,250z"/>
<path style="fill:#E1FFFA;" d="M306,250v257.104c-16.172,3.202-32.887,4.896-50,4.896c-66.212,0-142.5-50-172-102V250
	c0-5.523,4.477-10,10-10h202C301.523,240,306,244.477,306,250z"/>
<path style="fill:#9BF5F0;" d="M266,457v10c0,2.761-2.239,5-5,5H118.548c-8.328-5.311-16.323-11.097-23.959-17.307
	C95.425,453.099,97.076,452,99,452h162C263.761,452,266,454.239,266,457z M261,492H156.641c30.551,12.878,64.123,20,99.359,20
	c1.912,0,3.816-0.031,5.718-0.072c2.418-0.351,4.282-2.412,4.282-4.928v-10C266,494.239,263.761,492,261,492z M261,412H99
	c-2.761,0-5,2.239-5,5v10c0,2.761,2.239,5,5,5h162c2.761,0,5-2.239,5-5v-10C266,414.239,263.761,412,261,412z"/>
<path style="fill:#FFE13C;" d="M270,390H90c-5.523,0-10-4.477-10-10V280c0-5.523,4.477-10,10-10h180c5.523,0,10,4.477,10,10v100
	C280,385.523,275.523,390,270,390z"/>
<path style="fill:#EBB410;" d="M182.906,293.736l9.808,19.873c0.472,0.956,1.384,1.619,2.44,1.773l21.931,3.187
	c2.658,0.386,3.719,3.652,1.796,5.527l-15.87,15.469c-0.764,0.744-1.112,1.817-0.932,2.868l3.746,21.843
	c0.454,2.647-2.324,4.666-4.702,3.416l-19.616-10.313c-0.944-0.496-2.072-0.496-3.016,0l-19.616,10.313
	c-2.377,1.25-5.156-0.769-4.702-3.416l3.746-21.843c0.18-1.051-0.168-2.124-0.932-2.868l-15.87-15.469
	c-1.923-1.875-0.862-5.141,1.796-5.527l21.931-3.187c1.055-0.153,1.968-0.816,2.44-1.773l9.808-19.873
	C178.283,291.327,181.717,291.327,182.906,293.736z"/>
<path style="fill:#F7D139;" d="M302,246.466c-32.315,0-58.512-26.197-58.512-58.512s26.197-58.512,58.512-58.512
	s58.512,26.197,58.512,58.512S334.315,246.466,302,246.466z"/>
<path style="fill:#F0FAA0;" d="M344.55,148.192l-32.001,68.627c-1.207,2.589-3.767,4.126-6.449,4.162
	c-1.05,0.014-6.621,0.036-7.958-0.002c-2.369-0.068-4.658-1.299-5.974-3.473l-21.128-34.208c-2.058-3.402-0.966-7.844,2.436-9.902
	l4.933-2.985c3.402-2.058,7.844-0.965,9.902,2.436l12.802,20.727l25.141-53.914c1.68-3.604,5.979-5.168,9.583-3.488l5.226,2.437
	C344.666,140.29,346.23,144.588,344.55,148.192z"/>
<g>
</g>
<g>
</g>
<g>
</g>
<g>
</g>
<g>
</g>
<g>
</g>
<g>
</g>
<g>
</g>
<g>
</g>
<g>
</g>
<g>
</g>
<g>
</g>
<g>
</g>
<g>
</g>
<g>
</g>
</svg>
